#N canvas 458 23 571 396 10;
#X obj 166 216 line;
#X obj 116 -19 inlet;
#X obj 166 288 outlet;
#X msg 314 -38 1 0 \, 2 50 \, 3 0.7 \, 4 600 \, 5 60 \, 6 65;
#X obj 312 -64 loadbang;
#X msg 155 133 1 \, 0 \$1;
#X obj 258 43 r modwheel;
#X obj 258 75 / 127;
#X obj 255 108 * 2000;
#X obj 152 88 i;
#X connect 0 0 2 0;
#X connect 1 0 9 0;
#X connect 4 0 3 0;
#X connect 5 0 0 0;
#X connect 6 0 7 0;
#X connect 7 0 8 0;
#X connect 8 0 9 1;
#X connect 9 0 5 0;
