#N canvas 458 23 450 300 10;
#X obj 166 216 line;
#X obj 119 37 t b b b;
#X obj 224 67 delay 200;
#X obj 145 66 delay 50;
#X obj 116 -19 inlet;
#X obj 104 119 i;
#X obj 165 150 pack f f;
#X msg 167 180 \$1 \$2;
#X msg 229 183 0 \$1;
#X obj 229 150 i, f 2;
#X obj 166 288 outlet;
#X obj 162 118 i;
#X obj 247 -41 r ctl;
#X obj 201 29 * 5;
#X obj 292 70 / 127, f 7;
#X msg 314 -38 1 0 \, 2 50 \, 3 0.7 \, 4 600 \, 5 60 \, 6 65;
#X obj 312 -64 loadbang;
#X obj 247 -7 route 1 2 3 4, f 20;
#X msg 84 179 0 \, 20000 \$1;
#X obj 264 30 * 20;
#X connect 0 0 10 0;
#X connect 1 0 5 0;
#X connect 1 1 3 0;
#X connect 1 2 2 0;
#X connect 2 0 9 0;
#X connect 3 0 11 0;
#X connect 4 0 1 0;
#X connect 5 0 18 0;
#X connect 6 0 7 0;
#X connect 7 0 0 0;
#X connect 8 0 0 0;
#X connect 9 0 8 0;
#X connect 11 0 6 0;
#X connect 12 0 17 0;
#X connect 13 0 5 1;
#X connect 13 0 3 1;
#X connect 14 0 9 1;
#X connect 15 0 17 0;
#X connect 16 0 15 0;
#X connect 17 0 13 0;
#X connect 17 1 19 0;
#X connect 17 2 11 1;
#X connect 17 3 14 0;
#X connect 18 0 0 0;
#X connect 19 0 2 1;
#X connect 19 0 6 1;
