#N canvas 563 23 714 645 10;
#N canvas 0 22 450 300 (subpatch) 0;
#X array sample-table 88204 float 0;
#X coords 0 1.02 88203 -1.02 200 130 1;
#X restore 484 207 graph;
#N canvas 0 22 450 300 init 0;
#X obj 35 30 loadbang;
#X text 33 99 message to read a soundfile into the table (automatically
sent when you load this patch by the "loadbang" object.);
#X obj 35 78 soundfiler;
#X msg 35 54 read Mikw_DarkBell_12.wav sample-table;
#X connect 0 0 3 0;
#X connect 3 0 2 0;
#X restore 484 346 pd init;
#X obj 167 49 notein;
#X msg 163 104 \$2 \$1;
#X obj 168 81 pack f f;
#X obj 484 81 adc~ 1;
#X obj 484 106 hip~ 5;
#X msg 499 128 bang;
#X text 540 128 <-- record;
#X obj 484 155 tabwrite~ sample-table;
#X obj 283 738 dac~;
#X obj 63 72 bendin;
#X obj 251 202 i;
#X obj 283 184 + 1;
#X obj 288 226 sel 6;
#X msg 288 256 6;
#X msg 314 184 1;
#X obj 201 246 t f b;
#X obj 288 287 i;
#X obj 252 371 route 1 2 3 4 5 6;
#N canvas 826 78 450 323 stuff 0;
#X obj 183 119 t b, f 4;
#X obj 132 92 * 10, f 5;
#X obj 132 120 - 600, f 6;
#X obj 131 151 +;
#X obj 70 119 t b f;
#X obj 71 93 / 100, f 7;
#X obj 150 32 inlet;
#X obj 62 41 r bendin;
#X obj 130 197 outlet;
#X obj 181 199 outlet;
#X obj 144 63 unpack f f;
#X obj 227 199 outlet;
#X msg 181 146 0 \, 88200 2000;
#X connect 0 0 12 0;
#X connect 1 0 0 0;
#X connect 1 0 2 0;
#X connect 2 0 3 0;
#X connect 3 0 8 0;
#X connect 4 0 3 0;
#X connect 4 1 3 1;
#X connect 5 0 4 0;
#X connect 6 0 10 0;
#X connect 7 0 5 0;
#X connect 10 0 1 0;
#X connect 10 1 11 0;
#X connect 12 0 9 0;
#X restore 213 435 pd stuff;
#X obj 64 159 s bendin;
#X obj 282 693 *~ 0.3;
#X obj 271 457 voice 2;
#X obj 327 457 voice 3;
#X obj 383 457 voice 4;
#X obj 447 463 voice 5;
#X obj 503 463 voice 6;
#X obj 353 172 loadbang;
#X obj 213 461 voice 1;
#X obj 105 320 vsl 15 128 0 127 0 0 empty empty empty 0 -9 0 10 -262144
-1 -1 10000 1;
#X obj 104 464 / 127;
#X msg 107 282 100;
#X obj 55 20 hsl 128 15 0 127 0 0 empty empty empty -2 -8 0 10 -262144
-1 -1 0 1;
#X obj 55 40 / 127;
#X obj 110 97 * 12;
#X obj 63 102 /;
#X obj 282 715 *~ 1;
#X obj 613 693 delay;
#X msg 613 716 1;
#X obj 252 314 pack f f f;
#X obj 174 165 unpack f f;
#X msg 252 339 \$2 \$1 \$3;
#N canvas 826 78 450 323 stuff 0;
#X obj 183 119 t b, f 4;
#X obj 132 92 * 10, f 5;
#X obj 132 120 - 600, f 6;
#X obj 131 151 +;
#X obj 70 119 t b f;
#X obj 71 93 / 100, f 7;
#X obj 150 32 inlet;
#X obj 62 41 r bendin;
#X obj 130 197 outlet;
#X obj 181 199 outlet;
#X obj 144 63 unpack f f;
#X obj 227 199 outlet;
#X msg 181 146 0 \, 88200 2000;
#X connect 0 0 12 0;
#X connect 1 0 0 0;
#X connect 1 0 2 0;
#X connect 2 0 3 0;
#X connect 3 0 8 0;
#X connect 4 0 3 0;
#X connect 4 1 3 1;
#X connect 5 0 4 0;
#X connect 6 0 10 0;
#X connect 7 0 5 0;
#X connect 10 0 1 0;
#X connect 10 1 11 0;
#X connect 12 0 9 0;
#X restore 272 435 pd stuff;
#N canvas 826 78 450 323 stuff 0;
#X obj 183 119 t b, f 4;
#X obj 132 92 * 10, f 5;
#X obj 132 120 - 600, f 6;
#X obj 131 151 +;
#X obj 70 119 t b f;
#X obj 71 93 / 100, f 7;
#X obj 150 32 inlet;
#X obj 62 41 r bendin;
#X obj 130 197 outlet;
#X obj 181 199 outlet;
#X obj 144 63 unpack f f;
#X obj 227 199 outlet;
#X msg 181 146 0 \, 88200 2000;
#X connect 0 0 12 0;
#X connect 1 0 0 0;
#X connect 1 0 2 0;
#X connect 2 0 3 0;
#X connect 3 0 8 0;
#X connect 4 0 3 0;
#X connect 4 1 3 1;
#X connect 5 0 4 0;
#X connect 6 0 10 0;
#X connect 7 0 5 0;
#X connect 10 0 1 0;
#X connect 10 1 11 0;
#X connect 12 0 9 0;
#X restore 329 436 pd stuff;
#N canvas 826 78 450 323 stuff 0;
#X obj 183 119 t b, f 4;
#X obj 132 92 * 10, f 5;
#X obj 132 120 - 600, f 6;
#X obj 131 151 +;
#X obj 70 119 t b f;
#X obj 71 93 / 100, f 7;
#X obj 150 32 inlet;
#X obj 62 41 r bendin;
#X obj 130 197 outlet;
#X obj 181 199 outlet;
#X obj 144 63 unpack f f;
#X obj 227 199 outlet;
#X msg 181 146 0 \, 88200 2000;
#X connect 0 0 12 0;
#X connect 1 0 0 0;
#X connect 1 0 2 0;
#X connect 2 0 3 0;
#X connect 3 0 8 0;
#X connect 4 0 3 0;
#X connect 4 1 3 1;
#X connect 5 0 4 0;
#X connect 6 0 10 0;
#X connect 7 0 5 0;
#X connect 10 0 1 0;
#X connect 10 1 11 0;
#X connect 12 0 9 0;
#X restore 387 436 pd stuff;
#N canvas 826 78 450 323 stuff 0;
#X obj 183 119 t b, f 4;
#X obj 132 92 * 10, f 5;
#X obj 132 120 - 600, f 6;
#X obj 131 151 +;
#X obj 70 119 t b f;
#X obj 71 93 / 100, f 7;
#X obj 150 32 inlet;
#X obj 62 41 r bendin;
#X obj 130 197 outlet;
#X obj 181 199 outlet;
#X obj 144 63 unpack f f;
#X obj 227 199 outlet;
#X msg 181 146 0 \, 88200 2000;
#X connect 0 0 12 0;
#X connect 1 0 0 0;
#X connect 1 0 2 0;
#X connect 2 0 3 0;
#X connect 3 0 8 0;
#X connect 4 0 3 0;
#X connect 4 1 3 1;
#X connect 5 0 4 0;
#X connect 6 0 10 0;
#X connect 7 0 5 0;
#X connect 10 0 1 0;
#X connect 10 1 11 0;
#X connect 12 0 9 0;
#X restore 446 437 pd stuff;
#N canvas 826 78 450 323 stuff 0;
#X obj 183 119 t b, f 4;
#X obj 132 92 * 10, f 5;
#X obj 132 120 - 600, f 6;
#X obj 131 151 +;
#X obj 70 119 t b f;
#X obj 71 93 / 100, f 7;
#X obj 150 32 inlet;
#X obj 62 41 r bendin;
#X obj 130 197 outlet;
#X obj 181 199 outlet;
#X obj 144 63 unpack f f;
#X obj 227 199 outlet;
#X msg 181 146 0 \, 88200 2000;
#X connect 0 0 12 0;
#X connect 1 0 0 0;
#X connect 1 0 2 0;
#X connect 2 0 3 0;
#X connect 3 0 8 0;
#X connect 4 0 3 0;
#X connect 4 1 3 1;
#X connect 5 0 4 0;
#X connect 6 0 10 0;
#X connect 7 0 5 0;
#X connect 10 0 1 0;
#X connect 10 1 11 0;
#X connect 12 0 9 0;
#X restore 504 437 pd stuff;
#X obj 213 524 *~;
#X obj 174 187 / 127;
#X obj 272 523 *~;
#X obj 328 526 *~;
#X obj 387 525 *~;
#X obj 444 529 *~;
#X obj 503 528 *~;
#X obj 231 503 line~;
#X msg 231 484 \$1 3;
#X obj 291 499 line~;
#X msg 291 480 \$1 3;
#X obj 346 503 line~;
#X msg 346 484 \$1 3;
#X obj 406 499 line~;
#X msg 406 480 \$1 3;
#X obj 463 506 line~;
#X msg 463 487 \$1 3;
#X obj 523 502 line~;
#X msg 523 483 \$1 3;
#X obj 249 15 ctlin;
#X obj 249 59 pack f f;
#X msg 249 83 \$2 \$1;
#X obj 64 128 + 1;
#X obj 212 405 t l b;
#X obj 271 407 t l b;
#X obj 331 406 t l b;
#X obj 390 408 t l b;
#X obj 446 407 t l b;
#X obj 505 409 t l b;
#X obj 249 143 s ctl;
#X obj 613 671 t 2000 0;
#X obj 226 562 envlp;
#X obj 295 566 envlp;
#X obj 352 566 envlp;
#X obj 410 567 envlp;
#X obj 462 568 envlp;
#X obj 521 568 envlp;
#X floatatom 316 62 5 0 0 0 - - -, f 5;
#X floatatom 315 39 5 0 0 0 - - -, f 5;
#X floatatom 26 106 5 0 0 0 - - -, f 5;
#X obj 164 128 route 0;
#X obj 366 242 route 21;
#X obj 200 614 *~;
#X obj 281 614 *~;
#X obj 334 616 *~;
#X obj 391 614 *~;
#X obj 448 618 *~;
#X obj 508 618 *~;
#X obj 301 109 route 8 7 1;
#X obj 343 136 s modwheel;
#X obj 410 69 s pd;
#X msg 410 49 midi-dialog 2 0 0 0 0 0 0 0 0 0;
#X obj 410 27 loadbang;
#X msg 549 74 \; pd dsp 1;
#X obj 45 273 r pd;
#X obj 43 307 print;
#X connect 2 0 4 0;
#X connect 2 1 4 1;
#X connect 3 0 88 0;
#X connect 4 0 3 0;
#X connect 5 0 6 0;
#X connect 6 0 9 0;
#X connect 7 0 9 0;
#X connect 7 0 78 0;
#X connect 11 0 36 0;
#X connect 11 0 87 0;
#X connect 12 0 14 0;
#X connect 13 0 12 1;
#X connect 14 0 16 0;
#X connect 14 0 15 0;
#X connect 14 1 13 0;
#X connect 14 1 18 0;
#X connect 15 0 18 0;
#X connect 16 0 12 1;
#X connect 17 0 40 0;
#X connect 17 1 12 0;
#X connect 18 0 40 1;
#X connect 19 0 71 0;
#X connect 19 1 72 0;
#X connect 19 2 73 0;
#X connect 19 3 74 0;
#X connect 19 4 75 0;
#X connect 19 5 76 0;
#X connect 20 0 29 0;
#X connect 20 1 29 1;
#X connect 20 2 56 0;
#X connect 22 0 37 0;
#X connect 23 0 50 0;
#X connect 24 0 51 0;
#X connect 25 0 52 0;
#X connect 26 0 53 0;
#X connect 27 0 54 0;
#X connect 28 0 16 0;
#X connect 28 0 32 0;
#X connect 29 0 48 0;
#X connect 30 0 31 0;
#X connect 31 0 22 1;
#X connect 32 0 30 0;
#X connect 33 0 34 0;
#X connect 34 0 35 0;
#X connect 35 0 36 1;
#X connect 36 0 70 0;
#X connect 37 0 10 0;
#X connect 37 0 10 1;
#X connect 38 0 39 0;
#X connect 39 0 37 1;
#X connect 40 0 42 0;
#X connect 41 0 49 0;
#X connect 41 1 17 0;
#X connect 41 1 89 0;
#X connect 42 0 19 0;
#X connect 43 0 23 0;
#X connect 43 1 23 1;
#X connect 43 2 58 0;
#X connect 44 0 24 0;
#X connect 44 1 24 1;
#X connect 44 2 60 0;
#X connect 45 0 25 0;
#X connect 45 1 25 1;
#X connect 45 2 62 0;
#X connect 46 0 26 0;
#X connect 46 1 26 1;
#X connect 46 2 64 0;
#X connect 47 0 27 0;
#X connect 47 1 27 1;
#X connect 47 2 66 0;
#X connect 48 0 90 0;
#X connect 49 0 40 2;
#X connect 50 0 91 0;
#X connect 51 0 92 0;
#X connect 52 0 93 0;
#X connect 53 0 94 0;
#X connect 54 0 95 0;
#X connect 55 0 48 1;
#X connect 56 0 55 0;
#X connect 57 0 50 1;
#X connect 58 0 57 0;
#X connect 59 0 51 1;
#X connect 60 0 59 0;
#X connect 61 0 52 1;
#X connect 62 0 61 0;
#X connect 63 0 53 1;
#X connect 64 0 63 0;
#X connect 65 0 54 1;
#X connect 66 0 65 0;
#X connect 67 0 68 0;
#X connect 67 0 86 0;
#X connect 67 1 68 1;
#X connect 67 1 85 0;
#X connect 68 0 69 0;
#X connect 69 0 77 0;
#X connect 69 0 96 0;
#X connect 70 0 21 0;
#X connect 71 0 20 0;
#X connect 71 1 79 0;
#X connect 72 0 43 0;
#X connect 72 1 80 0;
#X connect 73 0 44 0;
#X connect 73 1 81 0;
#X connect 74 0 45 0;
#X connect 74 1 82 0;
#X connect 75 0 46 0;
#X connect 75 1 83 0;
#X connect 76 0 47 0;
#X connect 76 1 84 0;
#X connect 78 0 38 0;
#X connect 78 1 37 1;
#X connect 79 0 90 1;
#X connect 80 0 91 1;
#X connect 81 0 92 1;
#X connect 82 0 93 1;
#X connect 83 0 94 1;
#X connect 84 0 95 1;
#X connect 88 1 41 0;
#X connect 89 0 7 0;
#X connect 90 0 22 0;
#X connect 91 0 22 0;
#X connect 92 0 22 0;
#X connect 93 0 22 0;
#X connect 94 0 22 0;
#X connect 95 0 22 0;
#X connect 96 0 33 0;
#X connect 96 1 30 0;
#X connect 96 2 97 0;
#X connect 99 0 98 0;
#X connect 100 0 99 0;
#X connect 100 0 101 0;
#X connect 102 0 103 0;
