#N canvas 519 85 450 323 10;
#X obj 117 37 inlet;
#X obj 176 37 inlet;
#X obj 180 278 outlet~;
#N canvas 514 52 765 626 voice1 0;
#X obj 31 527 hip~ 5;
#X floatatom 28 56 0 0 100 0 - - -;
#X obj 28 84 * 441;
#X obj 29 391 +~ 1;
#X text 60 55 <-- chunk size (100ths of a second);
#X obj 29 469 *~;
#X obj 29 225 line~;
#X obj 29 181 * 441;
#X floatatom 29 159 0 0 100 0 - - -;
#X obj 29 203 pack 0 100;
#X text 60 159 <-- read point in 100ths of a second;
#X obj 29 420 +~;
#X obj 75 419 samphold~;
#X obj 29 319 samphold~;
#X obj 29 366 *~;
#X floatatom 304 79 0 0 0 0 - - -;
#X obj 80 84 * 0.01;
#X text 162 85 chunk size;
#X text 162 101 in seconds;
#X obj 315 156 t b f;
#X obj 304 180 /;
#X obj 335 35 loadbang;
#X obj 164 404 -~ 0.5;
#X obj 164 428 *~ 0.5;
#X obj 164 451 cos~;
#X obj 304 104 expr pow(2 \, $f1/120);
#X text 435 104 speed change;
#X obj 304 204 phasor~;
#X text 164 128 ... and in samples;
#X obj 391 233 +~ 0.5;
#X obj 391 255 wrap~;
#X obj 253 402 +~ 1;
#X obj 253 480 *~;
#X obj 253 431 +~;
#X obj 298 430 samphold~;
#X obj 253 330 samphold~;
#X obj 253 377 *~;
#X obj 388 415 -~ 0.5;
#X obj 388 439 *~ 0.5;
#X obj 388 462 cos~;
#X obj 28 498 +~;
#X text 339 79 <-- transposition \, halftones/10;
#X text 342 180 loop frequency;
#X text 70 277 copy 1;
#X text 296 288 copy 2;
#X obj 29 445 tabread4~ sample-table;
#X msg 340 58 20;
#X obj 148 4 inlet;
#X obj 252 6 inlet;
#X obj 35 560 outlet~;
#X obj 254 456 tabread4~ sample-table;
#X connect 0 0 49 0;
#X connect 1 0 2 0;
#X connect 1 0 16 0;
#X connect 2 0 35 0;
#X connect 2 0 13 0;
#X connect 3 0 11 0;
#X connect 5 0 40 0;
#X connect 6 0 12 0;
#X connect 6 0 34 0;
#X connect 7 0 9 0;
#X connect 8 0 7 0;
#X connect 9 0 6 0;
#X connect 11 0 45 0;
#X connect 12 0 11 1;
#X connect 13 0 14 0;
#X connect 14 0 3 0;
#X connect 15 0 25 0;
#X connect 16 0 19 0;
#X connect 19 0 20 0;
#X connect 19 1 20 1;
#X connect 20 0 27 0;
#X connect 21 0 15 0;
#X connect 21 0 46 0;
#X connect 22 0 23 0;
#X connect 23 0 24 0;
#X connect 24 0 5 1;
#X connect 25 0 20 0;
#X connect 27 0 29 0;
#X connect 27 0 35 1;
#X connect 27 0 14 1;
#X connect 27 0 12 1;
#X connect 27 0 22 0;
#X connect 27 0 13 1;
#X connect 29 0 30 0;
#X connect 30 0 36 1;
#X connect 30 0 35 1;
#X connect 30 0 37 0;
#X connect 30 0 34 1;
#X connect 31 0 33 0;
#X connect 32 0 40 1;
#X connect 33 0 50 0;
#X connect 34 0 33 1;
#X connect 35 0 36 0;
#X connect 36 0 31 0;
#X connect 37 0 38 0;
#X connect 38 0 39 0;
#X connect 39 0 32 1;
#X connect 40 0 0 0;
#X connect 45 0 5 0;
#X connect 46 0 1 0;
#X connect 47 0 15 0;
#X connect 48 0 6 0;
#X connect 50 0 32 0;
#X restore 174 191 pd voice1;
#X obj 227 134 t b b, f 10;
#X obj 178 224 *~ 1;
#X msg 293 161 0 \, 88200 2000;
#X connect 0 0 3 0;
#X connect 1 0 4 0;
#X connect 3 0 5 0;
#X connect 4 1 6 0;
#X connect 5 0 2 0;
#X connect 6 0 3 1;
